# xmcd
#
# Track frame offsets: 
#        150
#        9020
#        16495
#        27832
#        38932
#        50617
#        59732
#        68620
#        83807
#        93257
#        102082
#        110420
#
# Disc length: 1638 seconds
#
# Revision: 1
# Processed by: cddbd v1.5PL3 Copyright (c) Steve Scherf et al.
# Submitted via: ExactAudioCopy v0.95a5
#
DISCID=8d06640c
DTITLE=Jim Reeves - Disc 1
DYEAR=1900
DGENRE=Country
TTITLE0=Softly And Tenderly
TTITLE1=Bimbo
TTITLE2=Just Call Me Lonesome
TTITLE3=Am I Losing You
TTITLE4=I Love You More
TTITLE5=Billy Bayou
TTITLE6=According To My Heart
TTITLE7=Making Believe
TTITLE8=Wind Up Doll
TTITLE9=Old Time Religion
TTITLE10=Sweet Evening Breeze
TTITLE11=Your Old Love Letters
EXTD=
EXTT0=
EXTT1=
EXTT2=
EXTT3=
EXTT4=
EXTT5=
EXTT6=
EXTT7=
EXTT8=
EXTT9=
EXTT10=
EXTT11=
PLAYORDER=
